<svg width="22" height="22" viewBox="0 0 22 22" fill="none" xmlns="http://www.w3.org/2000/svg">
<path fill-rule="evenodd" clip-rule="evenodd" d="M11.8507 0.81479V4.39837H10.2211V0.81479C10.2211 0.364794 10.5859 1.97562e-08 11.0359 0C11.4859 -1.90734e-06 11.8507 0.364794 11.8507 0.81479ZM16.0653 10.9954C16.0653 13.8292 13.7773 16.1264 10.9548 16.1264C8.13229 16.1264 5.84422 13.8292 5.84422 10.9954C5.84422 8.16162 8.13229 5.86438 10.9548 5.86438C13.7773 5.86438 16.0653 8.16162 16.0653 10.9954ZM5.68397 6.85807L3.16011 4.3241C2.84255 4.00527 2.84255 3.48834 3.16011 3.16951C3.47767 2.85068 3.99253 2.85068 4.31009 3.16951L6.83395 5.70349L5.68397 6.85807ZM18.8397 4.3241L16.3158 6.85807L15.1659 5.70349L17.6897 3.16951C18.0073 2.85068 18.5221 2.85068 18.8397 3.16951C19.1573 3.48834 19.1573 4.00527 18.8397 4.3241ZM17.6157 11.8916H21.185C21.635 11.8916 21.9998 11.5269 21.9998 11.0769C21.9998 10.6269 21.635 10.2621 21.185 10.2621H17.6157V11.8916ZM0.814791 11.8916H4.38406V10.2621H0.814791C0.364795 10.2621 0 10.6269 0 11.0769C0 11.5269 0.364795 11.8916 0.814791 11.8916ZM15.1659 16.378L17.6897 18.9119C18.0073 19.2308 18.5221 19.2308 18.8397 18.9119C19.1573 18.5931 19.1573 18.0762 18.8397 17.7573L16.3158 15.2234L15.1659 16.378ZM10.1491 21.1852V17.6016H11.7787V21.1852C11.7787 21.6352 11.4139 22 10.9639 22C10.5139 22 10.1491 21.6352 10.1491 21.1852ZM5.68397 15.1419L3.16011 17.6759C2.84255 17.9947 2.84255 18.5116 3.16011 18.8305C3.47767 19.1493 3.99253 19.1493 4.31009 18.8305L6.83395 16.2965L5.68397 15.1419Z" fill="white"/>
</svg>
