<svg width="24" height="24" viewBox="0 0 24 24" fill="none" xmlns="http://www.w3.org/2000/svg">
<path d="M4.99988 7.99996H14.1099C14.3581 7.99996 14.6038 7.95107 14.8331 7.85609C15.0625 7.76111 15.2708 7.62189 15.4463 7.44639C15.6218 7.27089 15.761 7.06254 15.856 6.83323C15.951 6.60393 15.9999 6.35816 15.9999 6.10996C15.9999 4.49496 14.1059 3.62396 12.8799 4.67496L12.4999 4.99996M2.99988 12H17.9019C19.0599 12 19.9999 12.94 19.9999 14.098C19.9999 16.25 17.1469 17.008 16.0799 15.139L15.9999 15M4.99988 16H11.1099C11.6111 16 12.0919 16.1991 12.4463 16.5535C12.8008 16.908 12.9999 17.3887 12.9999 17.89C12.9999 19.505 11.1059 20.376 9.87988 19.325L9.49988 19" stroke="white" stroke-width="2" stroke-linecap="round" stroke-linejoin="round"/>
</svg>
